<svg xmlns="http://www.w3.org/2000/svg" data-name="Home Automation" viewBox="0 0 60 75" x="0px" y="0px"><title>Home Automation - 097 - CCTV</title><path d="M51.6515,22.70421a1,1,0,0,1,.61184,1.46184l-3.96826,6.95858-1.15286,2.02653a1,1,0,0,1-1.126.472L5.49344,22.8543A1,1,0,0,1,4.78381,21.631l2.56834-9.66456a1,1,0,0,1,1.22329-.70962Z" fill="none" stroke="#000" stroke-linecap="round" stroke-linejoin="round" stroke-width="2"/><path d="M43.09,32.84994l-1.38,2.73-1.02369,2.01789a1,1,0,0,1-1.14883.514L27.95,35.03l-7.41-1.97L7.9769,29.718a1,1,0,0,1-.74178-.91867L6.97,23.25Z" fill="none" stroke="#000" stroke-linecap="round" stroke-linejoin="round" stroke-width="2"/><path d="M15,51.99a3.99,3.99,0,0,0,.54,2H5.7a6.68186,6.68186,0,0,0,.3-2,6.68186,6.68186,0,0,0-.3-2h9.84A3.98968,3.98968,0,0,0,15,51.99Z" fill="none" stroke="#000" stroke-linecap="round" stroke-linejoin="round" stroke-width="2"/><path d="M23,51.99a3.99859,3.99859,0,1,1-4.54-3.96,3.26889,3.26889,0,0,1,.54-.04,4.00488,4.00488,0,0,1,4,4Z" fill="none" stroke="#000" stroke-linecap="round" stroke-linejoin="round" stroke-width="2"/><path d="M27.95,35.03a3.56788,3.56788,0,0,1-.12,1.11987,3.86328,3.86328,0,0,1-2.8,2.74,3.92453,3.92453,0,0,1-.92.13013,4.13315,4.13315,0,0,1-2.21-.59009,3.38718,3.38718,0,0,1-.73-.58,3.799,3.799,0,0,1-1.07-3.76A3.95148,3.95148,0,0,1,20.54,33.06Z" fill="none" stroke="#000" stroke-linecap="round" stroke-linejoin="round" stroke-width="2"/><path d="M25.03,38.88986,22.19,49.57992A3.9825,3.9825,0,0,0,19,47.99a3.26889,3.26889,0,0,0-.54.04l2.71-10.18005a3.38718,3.38718,0,0,0,.73.58,4.13315,4.13315,0,0,0,2.21.59009A3.92453,3.92453,0,0,0,25.03,38.88986Z" fill="none" stroke="#000" stroke-linecap="round" stroke-linejoin="round" stroke-width="2"/><path d="M6,51.99a6.68186,6.68186,0,0,1-.3,2,7.87161,7.87161,0,0,1-4.7,5v-14a7.87133,7.87133,0,0,1,4.7,5A6.68186,6.68186,0,0,1,6,51.99Z" fill="none" stroke="#000" stroke-linecap="round" stroke-linejoin="round" stroke-width="2"/><path d="M52.65381,32.28294l-1.541,5.79873-9.40359-2.499,1.37937-2.73756,2.92761.778a1,1,0,0,0,1.126-.472l1.15286-2.02653Z" fill="none" stroke="#000" stroke-linecap="round" stroke-linejoin="round" stroke-width="2"/><path d="M53.78267,29.95281h3a1,1,0,0,1,1,1v10a1,1,0,0,1-1,1h-3a2,2,0,0,1-2-2v-8a2,2,0,0,1,2-2Z" transform="translate(11.07154 -12.86401) rotate(14.88226)" fill="none" stroke="#000" stroke-linecap="round" stroke-linejoin="round" stroke-width="2"/></svg>