<svg xmlns="http://www.w3.org/2000/svg" xmlns:xlink="http://www.w3.org/1999/xlink" xmlns:sketch="http://www.bohemiancoding.com/sketch/ns" viewBox="0 0 30 37.5" version="1.1" x="0px" y="0px"><title>building_015-company-house-office-school-tower</title><desc>Created with Sketch.</desc><g stroke="none" stroke-width="1" fill="none" fill-rule="evenodd" sketch:type="MSPage"><g sketch:type="MSArtboardGroup" transform="translate(-225.000000, -90.000000)" fill="#ffffff"><g sketch:type="MSLayerGroup" transform="translate(227.000000, 90.000000)"><path d="M24.5,29 C24.7761424,29 25,28.7761424 25,28.5 C25,28.2238576 24.7761424,28 24.5,28 L0.5,28 C0.223857625,28 0,28.2238576 0,28.5 C0,28.7761424 0.223857625,29 0.5,29 L24.5,29 Z" sketch:type="MSShapeGroup"/><path d="M4.5,26 C4.77614237,26 5,25.7761424 5,25.5 C5,25.2238576 4.77614237,25 4.5,25 L3.5,25 C3.22385763,25 3,25.2238576 3,25.5 C3,25.7761424 3.22385763,26 3.5,26 L4.5,26 Z" sketch:type="MSShapeGroup"/><path d="M4.5,23 C4.77614237,23 5,22.7761424 5,22.5 C5,22.2238576 4.77614237,22 4.5,22 L3.5,22 C3.22385763,22 3,22.2238576 3,22.5 C3,22.7761424 3.22385763,23 3.5,23 L4.5,23 Z" sketch:type="MSShapeGroup"/><path d="M4.5,20 C4.77614237,20 5,19.7761424 5,19.5 C5,19.2238576 4.77614237,19 4.5,19 L3.5,19 C3.22385763,19 3,19.2238576 3,19.5 C3,19.7761424 3.22385763,20 3.5,20 L4.5,20 Z" sketch:type="MSShapeGroup"/><path d="M4.5,17 C4.77614237,17 5,16.7761424 5,16.5 C5,16.2238576 4.77614237,16 4.5,16 L3.5,16 C3.22385763,16 3,16.2238576 3,16.5 C3,16.7761424 3.22385763,17 3.5,17 L4.5,17 Z" sketch:type="MSShapeGroup"/><path d="M4.5,14 C4.77614237,14 5,13.7761424 5,13.5 C5,13.2238576 4.77614237,13 4.5,13 L3.5,13 C3.22385763,13 3,13.2238576 3,13.5 C3,13.7761424 3.22385763,14 3.5,14 L4.5,14 Z" sketch:type="MSShapeGroup"/><path d="M4.5,11 C4.77614237,11 5,10.7761424 5,10.5 C5,10.2238576 4.77614237,10 4.5,10 L3.5,10 C3.22385763,10 3,10.2238576 3,10.5 C3,10.7761424 3.22385763,11 3.5,11 L4.5,11 Z" sketch:type="MSShapeGroup"/><path d="M8.5,11 C8.77614237,11 9,10.7761424 9,10.5 C9,10.2238576 8.77614237,10 8.5,10 L6.5,10 C6.22385763,10 6,10.2238576 6,10.5 C6,10.7761424 6.22385763,11 6.5,11 L8.5,11 Z" sketch:type="MSShapeGroup"/><path d="M8.5,14 C8.77614237,14 9,13.7761424 9,13.5 C9,13.2238576 8.77614237,13 8.5,13 L6.5,13 C6.22385763,13 6,13.2238576 6,13.5 C6,13.7761424 6.22385763,14 6.5,14 L8.5,14 Z" sketch:type="MSShapeGroup"/><path d="M8.5,17 C8.77614237,17 9,16.7761424 9,16.5 C9,16.2238576 8.77614237,16 8.5,16 L6.5,16 C6.22385763,16 6,16.2238576 6,16.5 C6,16.7761424 6.22385763,17 6.5,17 L8.5,17 Z" sketch:type="MSShapeGroup"/><path d="M8.5,20 C8.77614237,20 9,19.7761424 9,19.5 C9,19.2238576 8.77614237,19 8.5,19 L6.5,19 C6.22385763,19 6,19.2238576 6,19.5 C6,19.7761424 6.22385763,20 6.5,20 L8.5,20 Z" sketch:type="MSShapeGroup"/><path d="M8.5,23 C8.77614237,23 9,22.7761424 9,22.5 C9,22.2238576 8.77614237,22 8.5,22 L6.5,22 C6.22385763,22 6,22.2238576 6,22.5 C6,22.7761424 6.22385763,23 6.5,23 L8.5,23 Z" sketch:type="MSShapeGroup"/><path d="M8.5,26 C8.77614237,26 9,25.7761424 9,25.5 C9,25.2238576 8.77614237,25 8.5,25 L6.5,25 C6.22385763,25 6,25.2238576 6,25.5 C6,25.7761424 6.22385763,26 6.5,26 L8.5,26 Z" sketch:type="MSShapeGroup"/><path d="M21.5,20 C21.7761424,20 22,19.7761424 22,19.5 C22,19.2238576 21.7761424,19 21.5,19 L19.5,19 C19.2238576,19 19,19.2238576 19,19.5 C19,19.7761424 19.2238576,20 19.5,20 L21.5,20 Z" sketch:type="MSShapeGroup"/><path d="M21.5,23 C21.7761424,23 22,22.7761424 22,22.5 C22,22.2238576 21.7761424,22 21.5,22 L19.5,22 C19.2238576,22 19,22.2238576 19,22.5 C19,22.7761424 19.2238576,23 19.5,23 L21.5,23 Z" sketch:type="MSShapeGroup"/><path d="M21.5,26 C21.7761424,26 22,25.7761424 22,25.5 C22,25.2238576 21.7761424,25 21.5,25 L19.5,25 C19.2238576,25 19,25.2238576 19,25.5 C19,25.7761424 19.2238576,26 19.5,26 L21.5,26 Z" sketch:type="MSShapeGroup"/><path d="M17.5,17 C17.7761424,17 18,16.7761424 18,16.5 C18,16.2238576 17.7761424,16 17.5,16 L15.5,16 C15.2238576,16 15,16.2238576 15,16.5 C15,16.7761424 15.2238576,17 15.5,17 L17.5,17 Z" sketch:type="MSShapeGroup"/><path d="M17.5,20 C17.7761424,20 18,19.7761424 18,19.5 C18,19.2238576 17.7761424,19 17.5,19 L15.5,19 C15.2238576,19 15,19.2238576 15,19.5 C15,19.7761424 15.2238576,20 15.5,20 L17.5,20 Z" sketch:type="MSShapeGroup"/><path d="M17.5,23 C17.7761424,23 18,22.7761424 18,22.5 C18,22.2238576 17.7761424,22 17.5,22 L15.5,22 C15.2238576,22 15,22.2238576 15,22.5 C15,22.7761424 15.2238576,23 15.5,23 L17.5,23 Z" sketch:type="MSShapeGroup"/><path d="M17.5,26 C17.7761424,26 18,25.7761424 18,25.5 C18,25.2238576 17.7761424,25 17.5,25 L15.5,25 C15.2238576,25 15,25.2238576 15,25.5 C15,25.7761424 15.2238576,26 15.5,26 L17.5,26 Z" sketch:type="MSShapeGroup"/><path d="M4.5,8 C4.77614237,8 5,7.77614237 5,7.5 C5,7.22385763 4.77614237,7 4.5,7 L3.5,7 C3.22385763,7 3,7.22385763 3,7.5 C3,7.77614237 3.22385763,8 3.5,8 L4.5,8 Z" sketch:type="MSShapeGroup"/><path d="M11.5,26 C11.7761424,26 12,25.7761424 12,25.5 C12,25.2238576 11.7761424,25 11.5,25 L10.5,25 C10.2238576,25 10,25.2238576 10,25.5 C10,25.7761424 10.2238576,26 10.5,26 L11.5,26 Z" sketch:type="MSShapeGroup"/><path d="M11.5,23 C11.7761424,23 12,22.7761424 12,22.5 C12,22.2238576 11.7761424,22 11.5,22 L10.5,22 C10.2238576,22 10,22.2238576 10,22.5 C10,22.7761424 10.2238576,23 10.5,23 L11.5,23 Z" sketch:type="MSShapeGroup"/><path d="M11.5,20 C11.7761424,20 12,19.7761424 12,19.5 C12,19.2238576 11.7761424,19 11.5,19 L10.5,19 C10.2238576,19 10,19.2238576 10,19.5 C10,19.7761424 10.2238576,20 10.5,20 L11.5,20 Z" sketch:type="MSShapeGroup"/><path d="M11.5,17 C11.7761424,17 12,16.7761424 12,16.5 C12,16.2238576 11.7761424,16 11.5,16 L10.5,16 C10.2238576,16 10,16.2238576 10,16.5 C10,16.7761424 10.2238576,17 10.5,17 L11.5,17 Z" sketch:type="MSShapeGroup"/><path d="M11.5,14 C11.7761424,14 12,13.7761424 12,13.5 C12,13.2238576 11.7761424,13 11.5,13 L10.5,13 C10.2238576,13 10,13.2238576 10,13.5 C10,13.7761424 10.2238576,14 10.5,14 L11.5,14 Z" sketch:type="MSShapeGroup"/><path d="M11.5,11 C11.7761424,11 12,10.7761424 12,10.5 C12,10.2238576 11.7761424,10 11.5,10 L10.5,10 C10.2238576,10 10,10.2238576 10,10.5 C10,10.7761424 10.2238576,11 10.5,11 L11.5,11 Z" sketch:type="MSShapeGroup"/><path d="M14,8.02563477 C14,7.84796374 13.9057155,7.68363778 13.7523286,7.59397483 L1.75232856,0.579326393 C1.41900249,0.384479294 1,0.624888334 1,1.01098633 L1,29 L2,29 L2,1.87288857 L13,8.30426538 L13,29 L14,29 L14,8.02563477 Z" sketch:type="MSShapeGroup"/><path d="M23.7523286,16.5939748 C23.9057155,16.6836378 24,16.8479637 24,17.0256348 L24,29 L23,29 L23,17.3042654 L13,11.4575592 L13,10.3086578 L23.7523286,16.5939748 Z" sketch:type="MSShapeGroup"/></g></g></g></svg>