<svg xmlns="http://www.w3.org/2000/svg" xmlns:xlink="http://www.w3.org/1999/xlink" xmlns:sketch="http://www.bohemiancoding.com/sketch/ns" viewBox="0 0 30 37.5" version="1.1" x="0px" y="0px"><title>arrow_081-back-backward-previous-direction-left</title><desc>Created with Sketch.</desc><g stroke="none" stroke-width="1" fill="none" fill-rule="evenodd" sketch:type="MSPage"><g sketch:type="MSArtboardGroup" transform="translate(-45.000000, -495.000000)" fill="#bdbdbd"><path d="M73,510 C73,502.820298 67.1797017,497 60,497 C52.8202983,497 47,502.820298 47,510 C47,517.179702 52.8202983,523 60,523 C67.1797017,523 73,517.179702 73,510 Z M67.5016088,509 C67.7768626,509 68,509.214035 68,509.504684 L68,510.495316 C68,510.774045 67.7783691,511 67.5016088,511 L55.6193975,511 L58.6229703,514.003573 C58.8260462,514.206649 58.8235842,514.523735 58.6264927,514.720827 L57.9260107,515.421309 C57.7204906,515.626829 57.410464,515.619494 57.2147212,515.423751 L52.1453941,510.354424 C51.9534286,510.162458 51.9496512,509.841319 52.1453941,509.645576 L57.2147212,504.576249 C57.4066867,504.384284 57.7289192,504.3816 57.9260107,504.578691 L58.6264927,505.279173 C58.8320129,505.484693 58.8220072,505.79739 58.6229703,505.996427 L55.6193975,509 L67.5016088,509 Z" sketch:type="MSShapeGroup"/></g></g></svg>