<svg xmlns="http://www.w3.org/2000/svg" width="24" height="23" viewBox="0 0 24 23">
    <path fill="#626262" fill-rule="nonzero" d="M22.671 1.764a2.478 2.478 0 0 0-2.595.05L17.09 3.702a1.79 1.79 0 0 1-1.835.053L9.056.313A2.506 2.506 0 0 0 7.459.03h-.055c-.32.056-.626.174-.903.347L1.23 3.707A2.663 2.663 0 0 0 0 5.974v12.963a2.66 2.66 0 0 0 1.308 2.315c.812.47 1.807.452 2.601-.048l2.985-1.89a1.79 1.79 0 0 1 1.835-.052l6.2 3.424c.488.271 1.05.37 1.597.283h.059c.32-.055.626-.172.903-.344l5.282-3.322A2.663 2.663 0 0 0 24 17.036V4.07a2.628 2.628 0 0 0-1.329-2.306zM9.081 18.608a2.518 2.518 0 0 0-.932-.306V.782c.2.032.394.099.573.196l6.207 3.432c.287.157.6.257.922.295v17.512a1.8 1.8 0 0 1-.573-.196l-6.196-3.413zm-2.569.072l-2.984 1.89a1.79 1.79 0 0 1-1.857.036 1.9 1.9 0 0 1-.937-1.65V5.963c0-.659.332-1.27.878-1.614l5.286-3.318c.161-.1.337-.174.52-.219v17.49h.06a2.525 2.525 0 0 0-.966.378zm16.75-1.629c0 .659-.332 1.27-.877 1.614l-5.297 3.306c-.162.1-.338.175-.521.22V4.697h-.052c.338-.052.663-.173.955-.355l2.984-1.89a1.79 1.79 0 0 1 1.856-.036 1.9 1.9 0 0 1 .937 1.65l.015 12.985z"/>
</svg>
