<svg xmlns="http://www.w3.org/2000/svg" width="24" height="21" viewBox="0 0 24 21">
    <g fill="#626262" fill-rule="nonzero">
        <path d="M1.23 16.56h7.508l2.616 4.02c.123.21.37.33.646.33.277 0 .492-.12.646-.33l2.616-4.02h7.507c.677 0 1.231-.54 1.231-1.2V1.26c0-.66-.554-1.2-1.23-1.2H1.23C.555.06 0 .6 0 1.26v14.1c0 .66.554 1.2 1.23 1.2zM.616 1.26c0-.33.277-.6.616-.6h21.538a.61.61 0 0 1 .616.6v14.1c0 .33-.277.6-.616.6h-7.692c-.092 0-.215.06-.246.15l-2.708 4.17c-.03.06-.092.06-.123.06-.03 0-.092 0-.123-.06l-2.708-4.17c-.061-.09-.154-.15-.246-.15H1.231a.61.61 0 0 1-.616-.6V1.26z"/>
        <path d="M4.985 4.77h13.938v1H4.985zM4.985 7.92h13.938v1H4.985zM4.985 11.07h7.323v1H4.985z"/>
    </g>
</svg>
