<svg xmlns="http://www.w3.org/2000/svg" xmlns:xlink="http://www.w3.org/1999/xlink" version="1.1" x="0px" y="0px" viewBox="0 0 100 125" enable-background="new 0 0 100 100" xml:space="preserve"><g><path d="M50,5C25.1,5,5,25.1,5,50s20.1,45,45,45s45-20.1,45-45S74.9,5,50,5z M50,90.9C28.1,90.9,10.3,73.6,9.2,52h12.2V48H9.2   c0.5-9.7,4.4-18.6,10.5-25.4l8.6,8.6l2.9-2.9l-8.6-8.6c6.8-6.1,15.6-10,25.4-10.5v12.2H52V9.2c9.7,0.5,18.6,4.4,25.4,10.5l-8.6,8.6   l2.9,2.9l8.6-8.6c6.1,6.8,10,15.6,10.5,25.4H78.6V52h12.2C89.7,73.6,71.9,90.9,50,90.9z"/><path d="M56.1,57.8V35.7H43.9v22.1c-3.8,2.2-6.1,6.2-6.1,10.6c0,6.8,5.5,12.3,12.3,12.3s12.3-5.5,12.3-12.3   C62.3,64,59.9,60,56.1,57.8z M50,76.6c-4.5,0-8.2-3.7-8.2-8.2c0-3.2,1.9-6.2,4.9-7.5l1.2-0.5V39.8H52v20.6l1.2,0.5   c3,1.3,4.9,4.2,4.9,7.5C58.2,72.9,54.5,76.6,50,76.6z"/></g></svg>